# xmcd
#
# Track frame offsets:
#	150
#	18675
#	35550
#	54000
#
# Disc length: 940 seconds
#
# Revision: 1
# Processed by: cddbd v1.5PL3 Copyright (c) Steve Scherf et al.
# Submitted via: CDex 1.50Beta5
#
DISCID=2903aa04
DTITLE=島谷ひとみ - 亜麻色の髪の乙女
DYEAR=1900
DGENRE=Pop
TTITLE0=亜麻色の髪の乙女
TTITLE1=明日と今日のあいだ
TTITLE2=亜麻色の髪の乙女(Instrumental)
TTITLE3=明日と今日のあいだ(Instrumental)
EXTD=
EXTT0=
EXTT1=
EXTT2=
EXTT3=
PLAYORDER=
